<?xml version="1.0" encoding="utf-8"?>
<!-- Generator: Adobe Illustrator 24.0.0, SVG Export Plug-In . SVG Version: 6.00 Build 0)  -->
<svg version="1.1" id="Layer_1" xmlns="http://www.w3.org/2000/svg" xmlns:xlink="http://www.w3.org/1999/xlink" x="0px" y="0px"
	 viewBox="0 0 26 26" style="enable-background:new 0 0 26 26;" xml:space="preserve">
<style type="text/css">
	.st0{fill:#FFFFFF;}
	.st1{fill:#14143F;}
	.st2{fill:#11143F;}
	.st3{fill:#FEDD00;}
</style>
<g>
	<g>
		<path class="st0" d="M11.5,8.8c-1.4,0-2.7,0-4.1,0c-1,0-1.7,1-1.7,2.1c0,1.2,0,2.5,0.1,3.7c0,0.4,0.1,0.8,0.3,1.1
			c0.4,0.5,0.8,0.8,1.5,0.8c1.1,0,2,0.9,2,2c0,1.9,0,3.7,0,5.6c0,0.9-0.5,1.5-1.3,1.7c-0.6,0.1-1.1-0.1-1.5-0.6
			c-1.1-1.5-2.3-3-3.4-4.5c-0.9-1.2-1.8-2.3-2.6-3.5c-0.5-0.7-0.6-1.4-0.2-2.1c0.6-1.1,0.9-2.3,0.8-3.5c0-0.5-0.2-1.1-0.5-1.5
			C0.4,9.3,0.5,8.2,1.1,7.5C3.2,5.2,5.2,3,7.2,0.7c0.7-0.8,1.7-0.8,2.4,0c1,1,2.1,1.6,3.5,1.5c1.3,0,2.4-0.5,3.3-1.4
			c0.3-0.3,0.5-0.5,0.9-0.6c0.6-0.1,1.1,0,1.6,0.5c1.4,1.6,2.8,3.1,4.2,4.7c0.7,0.7,1.3,1.5,2,2.2c0.6,0.7,0.7,1.5,0.3,2.3
			c-0.9,1.8-0.9,3.7,0,5.5c0.4,0.7,0.3,1.4-0.2,2.1c-1.9,2.6-3.8,5.1-5.7,7.7c-0.5,0.7-1.1,0.9-1.8,0.7c-0.7-0.2-1.1-0.9-1.1-1.7
			c0-1.9,0-3.7,0-5.6c0-1.1,0.9-2,2-2c1,0,1.9-0.9,1.9-1.9c0-1.3,0-2.6,0-3.9c0-1.1-0.9-1.9-2-1.9c-1.8,0-3.5,0-5.3,0
			c-0.1-0.1,0-0.2,0-0.3c0.3-0.9,0.6-1.8,0.9-2.8c0.1-0.2,0.2-0.4-0.1-0.5c-0.2-0.1-0.4,0.1-0.4,0.3c-0.6,1-1.2,1.9-1.8,2.9
			C11.7,8.5,11.7,8.7,11.5,8.8z"/>
		<path class="st1" d="M18.2,26c-0.2,0-0.4,0-0.6-0.1c-0.7-0.2-1.2-1-1.2-1.8c0-1.9,0-3.7,0-5.6c0-0.6,0.2-1.1,0.6-1.5
			c0.4-0.4,0.9-0.6,1.4-0.6c0,0,0,0,0,0c0.9,0,1.8-0.8,1.8-1.8c0-1.3,0-2.6,0-3.9c0-1-0.8-1.8-1.8-1.8c-1.2,0-2.4,0-3.5,0h-1.8
			l0-0.1c-0.1-0.2-0.1-0.3,0-0.4l0,0c0.3-0.7,0.5-1.5,0.7-2.2L14,5.6c0.1-0.2,0.1-0.3,0-0.3c-0.1,0-0.1,0-0.3,0.2l0,0.1
			c-0.1,0.2-0.3,0.5-0.4,0.7c-0.4,0.7-0.9,1.5-1.3,2.2c0,0,0,0.1,0,0.1c-0.1,0.1-0.2,0.3-0.4,0.4l0,0c-0.4,0-0.8,0-1.2,0
			c-0.9,0-1.9,0-2.9,0c-0.9,0-1.6,0.9-1.6,2c0,1,0,2.1,0.1,3.1l0,0.5c0,0.4,0.1,0.7,0.3,1c0.4,0.5,0.8,0.8,1.4,0.8
			c1.2,0,2.1,0.9,2.1,2.1c0,1.8,0,3.6,0,5.6c0,0.9-0.6,1.6-1.4,1.8c-0.6,0.1-1.2-0.1-1.7-0.7c-0.7-1-1.4-1.9-2.2-2.9l-2.1-2.8
			c-0.6-0.8-1.1-1.5-1.7-2.3C0.1,16.6,0,15.8,0.4,15c0.6-1.2,0.9-2.4,0.8-3.5c0-0.6-0.2-1.1-0.5-1.4C0.2,9.4,0.3,8.1,1,7.4
			c1.5-1.6,3-3.2,4.4-4.8C6,1.9,6.6,1.3,7.1,0.7C7.5,0.2,8,0,8.4,0c0,0,0,0,0,0c0.5,0,0.9,0.2,1.3,0.6c1,1,2.1,1.5,3.4,1.5
			c1.2,0,2.3-0.5,3.2-1.4c0.3-0.3,0.5-0.6,1-0.7c0.7-0.2,1.2,0,1.7,0.5c0.9,1,1.9,2.1,2.8,3.1L24,6.1c0.4,0.5,0.8,0.9,1.3,1.4
			C25.9,8.2,26,9,25.6,9.9c-0.9,1.8-0.9,3.6,0,5.4c0.4,0.8,0.3,1.5-0.2,2.2c-1.5,2.1-3.1,4.1-4.6,6.2l-1.1,1.5
			C19.2,25.7,18.8,26,18.2,26z M18.5,16.6c-0.5,0-0.9,0.2-1.3,0.5c-0.4,0.4-0.6,0.8-0.6,1.3c0,1.9,0,3.7,0,5.6c0,0.7,0.4,1.4,1,1.6
			c0.7,0.2,1.2,0,1.7-0.6l1.1-1.5c1.5-2.1,3.1-4.1,4.6-6.2c0.4-0.6,0.5-1.2,0.2-1.9c-0.9-1.9-0.9-3.8,0-5.7C25.7,9,25.6,8.3,25,7.6
			c-0.4-0.5-0.8-0.9-1.3-1.4l-2.2-2.4c-0.9-1-1.9-2.1-2.8-3.1c-0.4-0.4-0.9-0.6-1.4-0.4c-0.4,0.1-0.6,0.4-0.9,0.6
			c-0.9,1-2.1,1.5-3.4,1.5c0,0,0,0-0.1,0c-1.3,0-2.5-0.5-3.5-1.6C9.2,0.4,8.9,0.3,8.5,0.3c0,0,0,0,0,0c-0.4,0-0.8,0.2-1.1,0.6
			C6.8,1.5,6.2,2.1,5.6,2.7C4.2,4.3,2.7,6,1.2,7.6C0.6,8.2,0.5,9.3,1,10c0.3,0.4,0.5,0.9,0.5,1.6c0.1,1.2-0.2,2.3-0.9,3.6
			c-0.4,0.7-0.3,1.4,0.2,2c0.6,0.8,1.1,1.5,1.7,2.3l2.1,2.8c0.7,1,1.4,1.9,2.2,2.9c0.4,0.5,0.8,0.7,1.4,0.6c0.8-0.2,1.2-0.8,1.2-1.6
			c0-2,0-3.8,0-5.6c0-1.1-0.8-1.9-1.9-1.9c-0.7,0-1.2-0.3-1.6-0.9c-0.2-0.3-0.4-0.7-0.4-1.2l0-0.5c0-1,0-2.1-0.1-3.1
			c0-1.2,0.8-2.2,1.8-2.2c1,0,1.9,0,2.9,0c0.4,0,0.8,0,1.2,0c0.1,0,0.2-0.1,0.2-0.3c0,0,0-0.1,0-0.1c0.4-0.8,0.9-1.5,1.3-2.2
			c0.1-0.2,0.3-0.5,0.4-0.7l0,0c0.1-0.2,0.3-0.4,0.6-0.3c0.3,0.1,0.2,0.4,0.1,0.6l-0.2,0.6c-0.2,0.7-0.5,1.5-0.7,2.3l0,0
			c0,0.1,0,0.1,0,0.1l1.7,0c1.2,0,2.4,0,3.5,0c1.2,0,2.1,0.9,2.1,2c0,1.2,0,2.5,0,3.9C20.6,15.7,19.7,16.6,18.5,16.6
			C18.6,16.6,18.6,16.6,18.5,16.6z"/>
	</g>
	<path class="st2" d="M11.5,8.8c0.7-1.1,1.3-2.2,2-3.3c0.1-0.1,0.2-0.2,0.2-0.4C13.8,5,14,5,14.1,5.1c0.1,0,0.2,0.2,0.2,0.3
		c-0.1,0.4-0.2,0.8-0.3,1.2c-0.2,0.7-0.5,1.5-0.7,2.2c-0.3,0.8-0.6,1.7-0.9,2.6c-0.1,0.4,0,0.6,0.4,0.6c0.1,0,0.3,0,0.4,0
		c1.2,0,2.4,0,3.5,0c0.3,0,0.6,0.1,0.8,0.4c0.1,0.3,0,0.6-0.1,0.8c-0.9,1.3-1.7,2.6-2.6,3.9c-1.1,1.7-2.2,3.4-3.3,5.1
		c-0.1,0.1-0.2,0.2-0.3,0.4c-0.1,0.2-0.3,0.2-0.5,0.2c-0.2-0.1-0.2-0.3-0.1-0.4c0.1-0.4,0.3-0.8,0.4-1.3c0.6-1.8,1.3-3.6,1.9-5.4
		c0-0.1,0.1-0.2,0.1-0.4c0-0.2-0.1-0.4-0.3-0.4c-0.1,0-0.3-0.1-0.4-0.1c-1,0-2,0-3,0c-0.6,0-0.9-0.5-0.7-1c0.1-0.2,0.3-0.4,0.4-0.7
		c0.8-1.3,1.6-2.6,2.3-3.8C11.3,9.1,11.4,8.9,11.5,8.8z"/>
	<path class="st3" d="M14,5.3c0.1,0.2,0,0.3,0,0.3c-0.6,1.8-1.1,3.6-1.7,5.3c-0.3,1-0.1,1.3,0.9,1.3c1.1,0,2.2,0,3.4,0
		c0.1,0,0.3,0,0.4,0c0.4,0.1,0.5,0.3,0.4,0.7c-0.2,0.3-0.4,0.6-0.5,0.9c-1.8,2.8-3.7,5.5-5.5,8.3c-0.1,0.1-0.2,0.3-0.3,0.5
		c-0.1-0.2,0-0.3,0-0.4c0.7-2.1,1.5-4.2,2.2-6.4c0-0.1,0-0.1,0.1-0.2c0.2-0.6-0.1-1-0.8-1c-0.9,0-1.8,0-2.7,0c-0.1,0-0.2,0-0.2,0
		c-0.3,0-0.6,0-0.7-0.3c-0.2-0.3,0-0.5,0.1-0.7c1.6-2.6,3.2-5.2,4.7-7.8C13.7,5.6,13.8,5.4,14,5.3z"/>
</g>
</svg>
